<?xml version="1.0" encoding="utf-8"?>
<!-- Generator: Adobe Illustrator 26.0.2, SVG Export Plug-In . SVG Version: 6.00 Build 0)  -->
<svg version="1.1" id="Layer_1" xmlns="http://www.w3.org/2000/svg" xmlns:xlink="http://www.w3.org/1999/xlink" x="0px" y="0px"
	 viewBox="0 0 64 64" style="enable-background:new 0 0 64 64;" xml:space="preserve">
<path d="M43.6,31.4c0-3.4,1.9-6.6,4.8-8.4c-1.9-2.7-4.9-4.3-8.1-4.4c-3.4-0.4-6.7,2-8.5,2c-1.8,0-4.4-2-7.3-1.9
	c-3.8,0.1-7.2,2.2-9.1,5.5c-3.9,6.8-1,16.8,2.8,22.3c1.9,2.7,4.1,5.7,7,5.6c2.8-0.1,3.9-1.8,7.3-1.8c3.4,0,4.4,1.8,7.3,1.7
	c3,0,4.9-2.7,6.7-5.4c1.4-1.9,2.4-4,3.1-6.3C45.9,38.8,43.6,35.3,43.6,31.4z M38,15c1.6-2,2.5-4.5,2.3-7.1c-2.5,0.3-4.8,1.5-6.5,3.4
	c-1.7,1.9-2.5,4.3-2.3,6.8C34,18.1,36.4,17,38,15z"/>
</svg>
