<?xml version="1.0" encoding="utf-8"?>
<!-- Generator: Adobe Illustrator 26.0.2, SVG Export Plug-In . SVG Version: 6.00 Build 0)  -->
<svg version="1.1" id="Layer_1" xmlns="http://www.w3.org/2000/svg" xmlns:xlink="http://www.w3.org/1999/xlink" x="0px" y="0px"
	 viewBox="0 0 64 64" enable-background="new 0 0 64 64" xml:space="preserve">
<path fill="#5865F2" d="M48.7,16.9c-3.2-1.4-6.5-2.5-9.9-3c-0.5,0.8-0.9,1.7-1.3,2.6c-3.6-0.5-7.3-0.5-11,0
	c-0.4-0.9-0.8-1.7-1.3-2.6c-3.4,0.6-6.8,1.6-9.9,3.1c-6.3,9.3-8,18.3-7.1,27.2l0,0c3.7,2.7,7.8,4.8,12.1,6.1c1-1.3,1.9-2.7,2.6-4.2
	c-1.4-0.5-2.8-1.2-4.1-2c0.3-0.2,0.7-0.5,1-0.8c7.7,3.6,16.6,3.6,24.3,0c0.3,0.3,0.7,0.5,1,0.8c-1.3,0.8-2.7,1.4-4.1,2
	c0.7,1.5,1.6,2.9,2.6,4.2c4.4-1.3,8.5-3.4,12.2-6.1l0,0C56.8,33.8,54.1,24.8,48.7,16.9z M24,38.6c-2.4,0-4.3-2.1-4.3-4.8
	c0-2.6,1.9-4.8,4.3-4.8s4.4,2.2,4.3,4.8C28.3,36.5,26.4,38.6,24,38.6z M40,38.6c-2.4,0-4.3-2.1-4.3-4.8c0-2.6,1.9-4.8,4.3-4.8
	s4.4,2.2,4.3,4.8C44.2,36.5,42.4,38.6,40,38.6z"/>
</svg>
