<?xml version="1.0" encoding="utf-8"?>
<!-- Generator: Adobe Illustrator 26.0.2, SVG Export Plug-In . SVG Version: 6.00 Build 0)  -->
<svg version="1.1" id="Layer_1" xmlns="http://www.w3.org/2000/svg" xmlns:xlink="http://www.w3.org/1999/xlink" x="0px" y="0px"
	 viewBox="0 0 64 64" enable-background="new 0 0 64 64" xml:space="preserve">
<path fill="#00D2FF" d="M13.2,9.3c-0.5,0.6-0.8,1.4-0.8,2.6v40.2c0,1.1,0.3,2,0.8,2.6l0.1,0.1l22.5-22.5V32v-0.3L13.3,9.2L13.2,9.3z
	"/>
<path fill="#FFBD00" d="M43.3,39.8l-7.5-7.5V32v-0.3l7.5-7.5l0.2,0.1l8.9,5.1c2.5,1.4,2.5,3.8,0,5.3l-8.9,5.1L43.3,39.8z"/>
<path fill="#F3324A" d="M43.5,39.7L35.8,32L13.2,54.7c0.8,0.9,2.2,1,3.8,0.1L43.5,39.7"/>
<path fill="#06E775" d="M43.5,24.3L16.9,9.2c-1.6-0.9-2.9-0.8-3.8,0.1L35.8,32L43.5,24.3z"/>
</svg>
