<?xml version="1.0" encoding="utf-8"?>
<!-- Generator: Adobe Illustrator 25.0.1, SVG Export Plug-In . SVG Version: 6.00 Build 0)  -->
<svg version="1.1" id="Layer_1" xmlns="http://www.w3.org/2000/svg" xmlns:xlink="http://www.w3.org/1999/xlink" x="0px" y="0px"
	 viewBox="0 0 64 64" style="enable-background:new 0 0 64 64;" xml:space="preserve">
<style type="text/css">
	.st0{fill:#302F35;}
	.st1{fill:none;stroke:#9E95D3;stroke-width:6;stroke-linecap:round;stroke-linejoin:round;}
	.st2{fill:none;stroke:#FFFFFF;stroke-width:6;stroke-linecap:round;stroke-linejoin:round;}
</style>
<path class="st0" d="M56,64H8c-4.4,0-8-3.6-8-8V8c0-4.4,3.6-8,8-8h48c4.4,0,8,3.6,8,8v48C64,60.4,60.4,64,56,64z"/>
<g>
	<path class="st1" d="M15.5,56c0,0,5.7,1.2,7.2-3c1.5-3.4,1.6-14.1,3.6-18c1.5-2.7,5.4-3,5.4-3s-4.1-0.3-5.4-3
		c-1.9-3.9-2.2-14.6-3.6-18c-1.6-4.2-7.2-3-7.2-3"/>
	<path class="st2" d="M48.5,56c0,0-5.7,1.2-7.2-3c-1.5-3.4-1.7-14.1-3.6-18c-1.5-2.7-5.4-3-5.4-3s4-0.3,5.4-3c2-3.9,2.2-14.6,3.6-18
		c1.6-4.2,7.2-3,7.2-3"/>
</g>
</svg>
