<svg xmlns="http://www.w3.org/2000/svg" viewBox="0 0 64 64">
<path fill="#302F35" d="M56,64H8c-4.4,0-8-3.6-8-8V8c0-4.4,3.6-8,8-8h48c4.4,0,8,3.6,8,8v48C64,60.4,60.4,64,56,64z"/>
<g stroke-width="3" stroke-linecap="round" stroke-linejoin="round" fill="none"><path stroke="#9E95D3" d="M34,48c0,0,3.8,0.8,4.8-2c1-2.3,1.1-9.4,2.4-12c1-1.8,3.6-2,3.6-2s-2.7-0.2-3.6-2c-1.3-2.6-1.5-9.7-2.4-12 c-1.1-2.8-4.8-2-4.8-2"/><g stroke="#FFFFFF"><polyline points="39,48 28,16 17,48"/><line x1="21" y1="37" x2="35" y2="37"/><path d="M56,48c0,0-3.8,0.8-4.8-2c-1-2.3-1.1-9.4-2.4-12c-1-1.8-3.6-2-3.6-2s2.7-0.2,3.6-2c1.3-2.6,1.5-9.7,2.4-12 c1.1-2.8,4.8-2,4.8-2"/></g></g><circle fill="#fff" cx="10" cy="47" r="3"/></svg>