<svg xmlns="http://www.w3.org/2000/svg" viewBox="0 0 64 64">
<path d="M32,14.8c5.6,0,6.3,0,8.5,0.1c5.7,0.3,8.3,3,8.6,8.6c0.1,2.2,0.1,2.9,0.1,8.5s0,6.3-0.1,8.5c-0.3,5.7-2.9,8.3-8.6,8.6 c-2.2,0.1-2.9,0.1-8.5,0.1s-6.3,0-8.5-0.1c-5.7-0.3-8.3-3-8.6-8.6c-0.1-2.2-0.1-2.9-0.1-8.5s0-6.3,0.1-8.5c0.3-5.7,2.9-8.3,8.6-8.6 C25.7,14.8,26.4,14.8,32,14.8z M32,11c-5.7,0-6.4,0-8.7,0.1c-7.6,0.3-11.9,4.5-12.2,12.2C11,25.6,11,26.3,11,32s0,6.4,0.1,8.7 c0.3,7.6,4.5,11.9,12.2,12.2c2.3,0.1,3,0.1,8.7,0.1s6.4,0,8.7-0.1c7.6-0.4,11.9-4.6,12.2-12.2c0.1-2.3,0.1-3,0.1-8.7s0-6.4-0.1-8.7 c-0.4-7.6-4.6-11.9-12.2-12.2C38.4,11,37.7,11,32,11z M32,21.2c-5.9,0-10.8,4.8-10.8,10.8S26.1,42.8,32,42.8S42.8,38,42.8,32 S38,21.2,32,21.2z M32,39c-3.9,0-7-3.1-7-7s3.1-7,7-7s7,3.1,7,7S35.9,39,32,39z M43.2,18.3c-1.4,0-2.5,1.1-2.5,2.5 c0,1.4,1.1,2.5,2.5,2.5c1.4,0,2.5-1.1,2.5-2.5C45.7,19.4,44.6,18.3,43.2,18.3z"/>
</svg>
