<svg xmlns="http://www.w3.org/2000/svg" viewBox="0 0 64 64">
<path fill="#FF4500" d="M56,29.6c0-2.9-2.4-5.3-5.3-5.3c-1.4,0-2.7,0.6-3.7,1.5c-3.6-2.4-8.5-3.9-13.9-4.1l3-9.3l8,1.9l0,0.1 c0,2.4,2,4.3,4.3,4.3c2.4,0,4.3-1.9,4.3-4.3s-2-4.3-4.3-4.3c-1.8,0-3.4,1.1-4,2.8l-8.7-2c-0.4-0.1-0.8,0.1-0.9,0.5l-3.3,10.4 c-5.7,0.1-10.8,1.6-14.6,4.1c-0.9-0.9-2.2-1.4-3.6-1.4c-2.9,0-5.3,2.4-5.3,5.3c0,1.9,1.1,3.6,2.6,4.5c-0.1,0.6-0.2,1.1-0.2,1.7 c0,7.8,9.6,14.2,21.4,14.2s21.4-6.4,21.4-14.2c0-0.5-0.1-1.1-0.2-1.6C54.9,33.3,56,31.6,56,29.6z M21.6,33.2c0-1.7,1.4-3.2,3.2-3.2 s3.2,1.4,3.2,3.2c0,1.7-1.4,3.1-3.2,3.1S21.6,34.9,21.6,33.2z M39.7,42.5c-1.6,1.6-4.1,2.4-7.6,2.4l0,0l0,0c-3.6,0-6.1-0.8-7.6-2.4 c-0.3-0.3-0.3-0.8,0-1c0.3-0.3,0.8-0.3,1.1,0c1.3,1.3,3.5,1.9,6.6,1.9l0,0l0,0c3.1,0,5.3-0.6,6.6-1.9c0.3-0.3,0.8-0.3,1.1,0 	C40,41.8,40,42.2,39.7,42.5z M39.3,36.3c-1.7,0-3.2-1.4-3.2-3.1s1.4-3.1,3.2-3.1c1.7,0,3.2,1.4,3.2,3.1S41,36.3,39.3,36.3z"/>
</svg>
