<svg xmlns="http://www.w3.org/2000/svg" viewBox="0 0 120 40">
<g fill="none" stroke-width="3" stroke-linecap="round" stroke-linejoin="round">
	<g stroke='#9E95D3'>
		<path d="M37,36c0,0,3.1,0.8,4-2c0.8-2.3,0.9-9.4,2-12c0.8-1.8,3-2,3-2s-2.2-0.2-3-2c-1.1-2.6-1.2-9.7-2-12
			c-0.9-2.8-4-2-4-2"/>
		<line x1="61" y1="4" x2="61" y2="36"/>
		<ellipse cx="75" cy="20" rx="8" ry="16"/>
		<polyline points="89,36 89,4 99,36 109,4 109,36 		"/>
	</g>
	<g stroke='#302F35'>
		<polyline points="33,36 22,4 11,36 		"/>
		<line x1="15" y1="25" x2="29" y2="25"/>
		<path d="M56,36c0,0-3.1,0.8-4-2c-0.8-2.3-0.9-9.4-2-12c-0.8-1.8-3-2-3-2s2.2-0.2,3-2c1.1-2.6,1.2-9.7,2-12
			c0.9-2.8,4-2,4-2"/>
	</g>
</g>
<circle fill="#302F35" cx="6" cy="35.5" r="2"/>
</svg>
